<svg xmlns="http://www.w3.org/2000/svg" viewBox="0 0 512 512">
  <circle cx="256" cy="256" r="256" fill="#f7931a"/>
  <path fill="#fff" d="M350.7 225.5c4.8-32.2-19.7-49.5-53.2-61l10.9-43.5-26.6-6.6-10.6 42.4c-7-1.7-14.2-3.4-21.3-5l10.6-42.7-26.6-6.6-10.9 43.5c-5.8-1.3-11.5-2.6-17-4l0-.2-36.7-9.2-7.1 28.4s19.7 4.5 19.3 4.8c10.8 2.7 12.7 9.8 12.4 15.4l-12.4 49.8c.7.2 1.7.5 2.7.9-.9-.2-1.8-.4-2.7-.7l-17.4 69.7c-1.3 3.3-4.7 8.2-12.2 6.4.3.4-19.3-4.8-19.3-4.8l-13.2 30.4 34.6 8.6c6.4 1.6 12.7 3.3 18.9 4.9l-11 44.1 26.5 6.6 10.9-43.5c7.3 2 14.3 3.8 21.2 5.5l-10.8 43.4 26.6 6.6 11-44c45.3 8.6 79.4 5.1 93.7-35.8 11.6-33-.6-52-24.4-64.4 17.3-4 30.4-15.4 33.9-39zM307.8 298c-8.2 33-63.8 15.2-81.8 10.7l14.6-58.5c18 4.5 75.8 13.4 67.2 47.8zM316 225c-7.5 30-53.8 14.8-68.8 11l13.2-53c15.1 3.8 63.4 10.8 55.6 42z"/>
</svg>
